<svg xmlns="http://www.w3.org/2000/svg" xmlns:xlink="http://www.w3.org/1999/xlink" width="569.333" viewBox="-40 0 427 427.001" height="569.333" xmlns:v="https://vecta.io/nano"><g fill="#ff0"><use xlink:href="#B"/><use xlink:href="#B" x="-118"/></g><path d="M28.398 127.12V373.5c0 14.563 5.34 28.238 14.668 38.05 9.285 9.84 22.207 15.426 35.73 15.45H268c13.527-.023 26.45-5.61 35.73-15.45 9.328-9.812 14.668-23.488 14.668-38.05V127.12c18.543-4.922 30.56-22.836 28.078-41.863A38.21 38.21 0 0 0 308.598 52h-51.2V39.5A39.29 39.29 0 0 0 217.797 0H129a39.29 39.29 0 0 0-39.602 39.5V52H38.2A38.21 38.21 0 0 0 .32 85.258c-2.48 19.027 9.535 36.94 28.078 41.863zM268 407H78.797c-17.098 0-30.398-14.687-30.398-33.5V128h250v245.5c0 18.813-13.3 33.5-30.398 33.5zM109.398 39.5a19.25 19.25 0 0 1 5.676-13.895A19.26 19.26 0 0 1 129 20h88.797a19.26 19.26 0 0 1 13.926 5.605c3.695 3.672 5.742 8.688 5.676 13.895V52h-128zM38.2 72h270.398c9.94 0 18 8.06 18 18s-8.06 18-18 18H38.2c-9.94 0-18-8.06-18-18s8.06-18 18-18zm0 0" fill="#d40000"/><use xlink:href="#B" x="-59" fill="#ff0"/><defs ><path id="B" d="M232.398 154.703a10 10 0 0 0-10 10v189c0 5.52 4.477 10 10 10s10-4.48 10-10v-189a10 10 0 0 0-10-10zm0 0"/></defs></svg>